<svg width="56" height="56" viewBox="0 0 56 56" fill="none" xmlns="http://www.w3.org/2000/svg">
<path fill-rule="evenodd" clip-rule="evenodd" d="M17.8809 7.00043C17.8809 6.57088 18.2291 6.22266 18.6586 6.22266H37.3253C37.7549 6.22266 38.1031 6.57088 38.1031 7.00043C38.1031 7.42999 37.7549 7.77821 37.3253 7.77821H18.6586C18.2291 7.77821 17.8809 7.42999 17.8809 7.00043Z" fill="#107AF2"/>
<path fill-rule="evenodd" clip-rule="evenodd" d="M27.9999 15.5555C28.4295 15.5555 28.7777 15.9038 28.7777 16.3333L28.7777 49L27.2222 49L27.2222 16.3333C27.2222 15.9038 27.5704 15.5555 27.9999 15.5555Z" fill="#107AF2"/>
<path fill-rule="evenodd" clip-rule="evenodd" d="M12.4443 10.1111H43.5554V49H41.9999V11.6666H13.9999V49H12.4443V10.1111Z" fill="#107AF2"/>
<path fill-rule="evenodd" clip-rule="evenodd" d="M5.44434 49.0004C5.44434 48.5709 5.79256 48.2227 6.22211 48.2227L49.7777 48.2227C50.2072 48.2227 50.5554 48.5709 50.5554 49.0004C50.5554 49.43 50.2072 49.7782 49.7777 49.7782L6.22211 49.7782C5.79256 49.7782 5.44434 49.43 5.44434 49.0004Z" fill="#107AF2"/>
<path fill-rule="evenodd" clip-rule="evenodd" d="M31.8891 27.2227C32.3187 27.2227 32.6669 27.5709 32.6669 28.0004V32.6671C32.6669 33.0967 32.3187 33.4449 31.8891 33.4449C31.4596 33.4449 31.1113 33.0967 31.1113 32.6671V28.0004C31.1113 27.5709 31.4596 27.2227 31.8891 27.2227Z" fill="#107AF2"/>
</svg>
