<svg width="56" height="56" viewBox="0 0 56 56" fill="none" xmlns="http://www.w3.org/2000/svg">
<path fill-rule="evenodd" clip-rule="evenodd" d="M17.8892 7.00043C17.8892 6.57088 18.2374 6.22266 18.6669 6.22266H37.3336C37.7632 6.22266 38.1114 6.57088 38.1114 7.00043C38.1114 7.42999 37.7632 7.77821 37.3336 7.77821H18.6669C18.2374 7.77821 17.8892 7.42999 17.8892 7.00043Z" fill="#107AF2"/>
<path fill-rule="evenodd" clip-rule="evenodd" d="M6.22266 49.0004C6.22266 48.5709 6.57088 48.2227 7.00043 48.2227L49.0004 48.2227C49.43 48.2227 49.7782 48.5709 49.7782 49.0004C49.7782 49.43 49.43 49.7782 49.0004 49.7782L7.00043 49.7782C6.57088 49.7782 6.22266 49.43 6.22266 49.0004Z" fill="#107AF2"/>
<path fill-rule="evenodd" clip-rule="evenodd" d="M27.2226 10.8889H43.556V17.1111C43.556 17.5407 43.2078 17.8889 42.7782 17.8889C42.3487 17.8889 42.0004 17.5407 42.0004 17.1111V12.4445H28.7782V39.5404L31.6143 37.1296C31.9416 36.8514 32.4325 36.8912 32.7107 37.2185C32.9889 37.5458 32.9491 38.0367 32.6218 38.3149L28.0004 42.243L23.379 38.3149C23.0518 38.0367 23.012 37.5458 23.2902 37.2185C23.5684 36.8912 24.0592 36.8514 24.3865 37.1296L27.2226 39.5404V10.8889ZM42.8071 19.514L47.0472 23.9635C47.3435 24.2744 47.3316 24.7668 47.0207 25.0631C46.7097 25.3594 46.2174 25.3476 45.921 25.0366L43.556 22.5548V49.7778H27.2226V45.1111C27.2226 44.6816 27.5709 44.3334 28.0004 44.3334C28.43 44.3334 28.7782 44.6816 28.7782 45.1111V48.2223H42.0004V22.4155L39.1946 25.0655C38.8823 25.3604 38.39 25.3464 38.0951 25.0341C37.8002 24.7218 37.8142 24.2295 38.1265 23.9346L42.8071 19.514Z" fill="#107AF2"/>
<path fill-rule="evenodd" clip-rule="evenodd" d="M11.667 10.8889H24.8892C25.3188 10.8889 25.667 11.2371 25.667 11.6667C25.667 12.0962 25.3188 12.4445 24.8892 12.4445H13.2225V49C13.2225 49.4296 12.8743 49.7778 12.4448 49.7778C12.0152 49.7778 11.667 49.4296 11.667 49V10.8889Z" fill="#107AF2"/>
<path fill-rule="evenodd" clip-rule="evenodd" d="M31.8896 28.7773C32.3191 28.7773 32.6674 29.1256 32.6674 29.5551V32.6662C32.6674 33.0958 32.3191 33.444 31.8896 33.444C31.46 33.444 31.1118 33.0958 31.1118 32.6662V29.5551C31.1118 29.1256 31.46 28.7773 31.8896 28.7773Z" fill="#107AF2"/>
</svg>
