<svg width="56" height="56" viewBox="0 0 56 56" fill="none" xmlns="http://www.w3.org/2000/svg">
<path fill-rule="evenodd" clip-rule="evenodd" d="M27.37 33.9695C25.8513 32.4508 25.8513 29.9885 27.37 28.4697L28.4699 27.3698C29.9886 25.8511 32.4509 25.8511 33.9696 27.3698L48.2689 41.6691C49.7876 43.1878 49.7876 45.6501 48.2689 47.1688L47.169 48.2687C45.6503 49.7874 43.188 49.7874 41.6692 48.2687L27.37 33.9695ZM28.4699 29.5697C27.5587 30.4809 27.5587 31.9583 28.4699 32.8695L42.7692 47.1688C43.6804 48.08 45.1578 48.08 46.069 47.1688L47.169 46.0688C48.0802 45.1576 48.0802 43.6802 47.169 42.769L32.8697 28.4697C31.9585 27.5585 30.4811 27.5585 29.5699 28.4697L28.4699 29.5697Z" fill="#107AF2"/>
<path fill-rule="evenodd" clip-rule="evenodd" d="M14.7204 16.9207C15.0241 16.6169 15.5166 16.6169 15.8203 16.9207L27.9197 29.0201C28.2234 29.3238 28.2234 29.8163 27.9197 30.12C27.616 30.4237 27.1235 30.4237 26.8198 30.12L14.7204 18.0206C14.4166 17.7169 14.4166 17.2244 14.7204 16.9207ZM16.9203 14.7208C17.224 14.417 17.7165 14.417 18.0202 14.7208L30.1196 26.8202C30.4233 27.1239 30.4233 27.6164 30.1196 27.9201C29.8159 28.2238 29.3234 28.2238 29.0197 27.9201L16.9203 15.8207C16.6165 15.517 16.6165 15.0245 16.9203 14.7208Z" fill="#107AF2"/>
<path fill-rule="evenodd" clip-rule="evenodd" d="M6.9087 9.35662L9.32225 7.00103L9.76156 7.13341L9.53715 7.87811C9.76156 7.13341 9.76142 7.13337 9.76156 7.13341L9.76617 7.13481L9.7764 7.13793L9.81315 7.14931C9.84471 7.15916 9.89016 7.17353 9.948 7.19228C10.0636 7.22976 10.229 7.28483 10.4322 7.35642C10.8378 7.49939 11.3972 7.70939 12.013 7.97809C13.216 8.50299 14.7432 9.2974 15.7115 10.3173C16.4481 11.0932 17.1099 12.2705 17.5703 13.194C17.8061 13.6668 17.9994 14.0945 18.1339 14.4042C18.2013 14.5593 18.2541 14.6854 18.2904 14.7734C18.3086 14.8174 18.3226 14.852 18.3323 14.8759L18.3435 14.9038L18.3465 14.9115L18.3478 14.9147C18.3478 14.9148 18.3479 14.9149 17.6244 15.2005L18.3478 14.9147L18.538 15.3965L15.237 18.6111L14.7687 18.4255L15.0553 17.7025C14.7687 18.4255 14.7688 18.4256 14.7687 18.4255L14.7652 18.4242L14.7575 18.4211L14.7295 18.4098C14.7054 18.4 14.6707 18.3859 14.6265 18.3675C14.538 18.3309 14.4114 18.2775 14.2557 18.2095C13.9446 18.0737 13.5152 17.8785 13.0406 17.6402C12.1139 17.1748 10.9324 16.505 10.1565 15.7569C9.14844 14.7851 8.37105 13.2569 7.85952 12.0547C7.5976 11.439 7.39363 10.88 7.25502 10.4747C7.1856 10.2718 7.13229 10.1065 7.09604 9.99099C7.0779 9.9332 7.06402 9.88779 7.0545 9.85626L7.0435 9.81952L7.04048 9.8093L7.03932 9.8053C7.03927 9.80516 7.03913 9.80468 7.78591 9.58729L7.03932 9.8053L6.9087 9.35662ZM8.67215 9.80916C8.68894 9.85962 8.70719 9.9138 8.72688 9.97137C8.85651 10.3504 9.04719 10.8728 9.29091 11.4456C9.79065 12.6202 10.4685 13.8969 11.2362 14.637C11.8305 15.2101 12.8285 15.793 13.7387 16.2501C14.1826 16.473 14.5859 16.6564 14.8781 16.784C14.8794 16.7845 14.8806 16.7851 14.8819 16.7856L16.7023 15.0128C16.5761 14.7226 16.3962 14.3252 16.1782 13.8881C15.7258 12.9807 15.149 11.9842 14.5833 11.3883C13.8441 10.6096 12.5662 9.91663 11.3909 9.40384C10.8176 9.1537 10.2946 8.95728 9.91509 8.82352C9.85385 8.80194 9.79643 8.78202 9.74324 8.76379L8.67215 9.80916Z" fill="#107AF2"/>
<path fill-rule="evenodd" clip-rule="evenodd" d="M32.3195 32.3191C32.6232 32.0154 33.1157 32.0154 33.4194 32.3191L43.3189 42.2186C43.6227 42.5223 43.6227 43.0148 43.3189 43.3185C43.0152 43.6223 42.5227 43.6223 42.219 43.3185L32.3195 33.4191C32.0158 33.1153 32.0158 32.6228 32.3195 32.3191Z" fill="#107AF2"/>
<path fill-rule="evenodd" clip-rule="evenodd" d="M48.6359 9.73929L49.1262 10.6785C50.8094 13.9032 50.2983 17.9766 47.5886 20.6863C45.464 22.8108 42.5006 23.5835 39.7673 23.0076L36.3373 26.4377C36.0336 26.7414 35.5411 26.7414 35.2374 26.4377C34.9336 26.1339 34.9336 25.6415 35.2374 25.3377L39.2919 21.2832L39.7254 21.3989C42.063 22.0232 44.6572 21.4177 46.4886 19.5863C48.4315 17.6434 48.9943 14.8413 48.1741 12.4009L44.8387 15.7364C44.2312 16.3439 43.2463 16.3439 42.6388 15.7364L40.4389 13.5365C39.8314 12.929 39.8314 11.9441 40.4389 11.3366L43.7743 8.00123C41.334 7.18121 38.5319 7.74399 36.5891 9.68681C34.7577 11.5182 34.1523 14.1123 34.7765 16.4499L34.8922 16.8833L29.1877 22.5879C28.8839 22.8916 28.3915 22.8916 28.0877 22.5879C27.784 22.2841 27.784 21.7917 28.0877 21.4879L33.1678 16.4079C32.592 13.6747 33.3647 10.7113 35.4892 8.58687C38.1988 5.87723 42.2721 5.36602 45.4967 7.04916L46.436 7.53942L41.5389 12.4365L43.7387 14.6364L48.6359 9.73929ZM22.588 28.0876C22.8917 28.3913 22.8917 28.8838 22.588 29.1875L16.8834 34.8921L16.45 34.7764C14.1124 34.1522 11.5183 34.7576 9.68692 36.589C7.7441 38.5318 7.18132 41.3339 8.00133 43.7742L11.3367 40.4388C11.9442 39.8313 12.9291 39.8313 13.5366 40.4388L15.7365 42.6387C16.344 43.2462 16.344 44.2311 15.7365 44.8386L12.401 48.174C14.8414 48.9941 17.6435 48.4314 19.5864 46.4885C21.4179 44.6571 22.0233 42.0629 21.399 39.7252L21.2833 39.2918L25.3379 35.2372C25.6416 34.9335 26.1341 34.9335 26.4378 35.2372C26.7415 35.541 26.7415 36.0334 26.4378 36.3372L23.0077 39.7672C23.5836 42.5005 22.8109 45.4639 20.6864 47.5885C17.9767 50.2981 13.9033 50.8093 10.6786 49.1261L9.7394 48.6358L14.6365 43.7386L12.4367 41.5388L7.53953 46.4359L7.04926 45.4966C5.36613 42.2719 5.87734 38.1987 8.58698 35.4891C10.7114 33.3646 13.6748 32.5919 16.408 33.1677L21.4881 28.0876C21.7918 27.7838 22.2843 27.7838 22.588 28.0876Z" fill="#107AF2"/>
</svg>
