<svg width="56" height="56" viewBox="0 0 56 56" fill="none" xmlns="http://www.w3.org/2000/svg">
<path fill-rule="evenodd" clip-rule="evenodd" d="M21.1006 14.0004C21.1006 13.5709 21.4488 13.2227 21.8784 13.2227H34.3228C34.7524 13.2227 35.1006 13.5709 35.1006 14.0004C35.1006 14.43 34.7524 14.7782 34.3228 14.7782H21.8784C21.4488 14.7782 21.1006 14.43 21.1006 14.0004Z" fill="#107AF2"/>
<path fill-rule="evenodd" clip-rule="evenodd" d="M28.1005 20.2227C28.5301 20.2227 28.8783 20.5709 28.8783 21.0004V41.2227H27.3228V21.0004C27.3228 20.5709 27.671 20.2227 28.1005 20.2227Z" fill="#107AF2"/>
<path fill-rule="evenodd" clip-rule="evenodd" d="M17.9893 16.3337H38.2115V42.7782H17.9893V16.3337ZM19.5448 17.8893V41.2226H36.6559V17.8893H19.5448Z" fill="#107AF2"/>
<path fill-rule="evenodd" clip-rule="evenodd" d="M30.9472 27.2227C31.3768 27.2227 31.725 27.5709 31.725 28.0004V31.1115C31.725 31.5411 31.3768 31.8893 30.9472 31.8893C30.5177 31.8893 30.1694 31.5411 30.1694 31.1115V28.0004C30.1694 27.5709 30.5177 27.2227 30.9472 27.2227Z" fill="#107AF2"/>
<path fill-rule="evenodd" clip-rule="evenodd" d="M6.6697 14.0868C7.07306 13.9391 7.51979 14.1463 7.66751 14.5496L9.10664 18.4793L13.1498 17.0547C13.5549 16.9119 13.9991 17.1246 14.1418 17.5297C14.2846 17.9349 14.0719 18.379 13.6668 18.5218L8.17437 20.4571L6.20683 15.0846C6.05911 14.6812 6.26635 14.2345 6.6697 14.0868Z" fill="#107AF2"/>
<path fill-rule="evenodd" clip-rule="evenodd" d="M7.35425 24.6C7.78037 24.6542 8.08184 25.0436 8.02761 25.4697C7.92303 26.2914 7.8705 27.1375 7.8705 28.0004C7.8705 39.1676 16.9256 48.2227 28.0927 48.2227C36.1956 48.2227 43.1842 43.4605 46.4131 36.5832C46.5957 36.1944 47.0589 36.0272 47.4477 36.2097C47.8365 36.3923 48.0038 36.8555 47.8212 37.2443C44.3456 44.647 36.8209 49.7782 28.0927 49.7782C16.0665 49.7782 6.31494 40.0267 6.31494 28.0004C6.31494 27.0745 6.3713 26.1628 6.4845 25.2734C6.53873 24.8472 6.92813 24.5458 7.35425 24.6Z" fill="#107AF2"/>
<path fill-rule="evenodd" clip-rule="evenodd" d="M28.1007 7.77821C19.8931 7.77821 12.837 12.66 9.6604 19.68C9.48331 20.0713 9.0225 20.245 8.63115 20.0679C8.2398 19.8909 8.0661 19.43 8.24319 19.0387C11.6621 11.4831 19.2594 6.22266 28.1007 6.22266C40.1269 6.22266 49.8785 15.9742 49.8785 28.0004C49.8785 28.9117 49.822 29.8055 49.7175 30.6895C49.6671 31.1161 49.2804 31.421 48.8538 31.3706C48.4273 31.3202 48.1223 30.9335 48.1727 30.5069C48.2705 29.6798 48.3229 28.847 48.3229 28.0004C48.3229 16.8333 39.2678 7.77821 28.1007 7.77821Z" fill="#107AF2"/>
<path fill-rule="evenodd" clip-rule="evenodd" d="M47.8635 35.5438L49.831 40.9163C49.9787 41.3197 49.7715 41.7664 49.3681 41.9141C48.9648 42.0618 48.518 41.8546 48.3703 41.4513L46.9312 37.5216L42.888 38.9462C42.4829 39.089 42.0387 38.8763 41.896 38.4712C41.7532 38.066 41.9659 37.6219 42.3711 37.4791L47.8635 35.5438Z" fill="#107AF2"/>
</svg>
