<svg width="95" height="96" viewBox="0 0 95 96" fill="none" xmlns="http://www.w3.org/2000/svg">
<path d="M47.2131 0C73.2882 0 94.4262 21.4903 94.4262 48C94.4262 74.5097 73.2882 96 47.2131 96C21.138 96 0 74.5097 0 48C0 21.4903 21.138 0 47.2131 0Z" fill="url(#paint0_linear_770_2596)"/>
<path d="M32.3594 67.3281V68.7188H26.9062V71.3125H25.1875V68.7188H19.4531V67.3281H32.3594ZM21.0156 74.1094V70.0156H22.75V72.7031H30.9375V74.1094H21.0156ZM21.0938 66.0156V60.9062H30.7031V66.0156H21.0938ZM22.7812 64.6562H28.9844V62.2656H22.7812V64.6562ZM37.875 61.25C40.1172 61.2422 41.75 62.6562 41.7656 64.6562C41.75 66.6641 40.1172 68.0703 37.875 68.0781C35.6562 68.0703 33.9922 66.6641 34 64.6562C33.9922 62.6562 35.6562 61.2422 37.875 61.25ZM33.3594 70.0312C35.9062 70.0312 39.4297 70 42.4844 69.5625L42.625 70.8281C39.4609 71.4297 36.0703 71.4531 33.5781 71.4531L33.3594 70.0312ZM35.7188 64.6562C35.7109 65.8359 36.6406 66.5625 37.875 66.5625C39.125 66.5625 40.0547 65.8359 40.0625 64.6562C40.0547 63.4844 39.1328 62.75 37.875 62.75C36.6406 62.75 35.7109 63.4844 35.7188 64.6562ZM43.3281 74.4062V60.2656H45.0625V74.4062H43.3281ZM58.1875 60.2656V65.8906H60.3594V67.3281H58.1875V74.3906H56.4688V60.2656H58.1875ZM47.0469 63.8281V62.4375H50.3906V60.4688H52.125V62.4375H55.375V63.8281H47.0469ZM47.7031 68.0781C47.6875 66.125 49.2031 64.7422 51.2656 64.75C53.2969 64.7422 54.8047 66.125 54.8125 68.0781C54.8047 70.0234 53.2969 71.3906 51.2656 71.3906C49.2031 71.3906 47.6875 70.0234 47.7031 68.0781ZM49.3594 68.0781C49.3516 69.2266 50.1562 69.9609 51.2656 69.9531C52.3516 69.9609 53.1406 69.2266 53.1562 68.0781C53.1406 66.9297 52.3516 66.1719 51.2656 66.1719C50.1562 66.1719 49.3516 66.9297 49.3594 68.0781ZM72.75 60.2656V74.3906H71V60.2656H72.75ZM61.0469 70.5C64.75 68.7422 66.4531 66.3516 66.7656 63.1406H61.7656V61.7656H68.5312C68.5312 65.9688 66.8984 69.5391 61.9531 71.8906L61.0469 70.5Z" fill="white"/>
<path d="M37.3135 42.2415L37.8663 42.7484L38.4278 42.1361L37.7614 41.64L37.3135 42.2415ZM33.8672 46L33.3144 45.4931L32.1619 46.75H33.8672V46ZM47.8672 46V46.75L48.219 45.3376L47.8672 46ZM47.8056 45.9673L47.8477 45.2185L47.4538 46.6297L47.8056 45.9673ZM66.3277 30C66.3277 38.3379 58.6473 45.25 48.9725 45.25V46.75C59.2961 46.75 67.8277 39.3352 67.8277 30H66.3277ZM48.9725 14.75C58.6473 14.75 66.3277 21.6621 66.3277 30H67.8277C67.8277 20.6648 59.2961 13.25 48.9725 13.25V14.75ZM31.6172 30C31.6172 21.6621 39.2976 14.75 48.9725 14.75V13.25C38.6488 13.25 30.1172 20.6648 30.1172 30H31.6172ZM37.7614 41.64C33.9836 38.8271 31.6172 34.6441 31.6172 30H30.1172C30.1172 35.1794 32.7597 39.7859 36.8656 42.8431L37.7614 41.64ZM36.7608 41.7347L33.3144 45.4931L34.42 46.5069L37.8663 42.7484L36.7608 41.7347ZM33.8672 46.75H46.3116V45.25H33.8672V46.75ZM46.3116 46.75H47.8672V45.25H46.3116V46.75ZM48.219 45.3376L48.1574 45.3049L47.4538 46.6297L47.5154 46.6624L48.219 45.3376ZM48.9725 45.25C48.5945 45.25 48.2195 45.2394 47.8477 45.2185L47.7635 46.7161C48.1633 46.7386 48.5664 46.75 48.9725 46.75V45.25Z" fill="white"/>
<circle cx="40.8672" cy="30" r="2" fill="white"/>
<circle cx="48.8672" cy="30" r="2" fill="white"/>
<circle cx="56.8672" cy="30" r="2" fill="white"/>
<defs>
<linearGradient id="paint0_linear_770_2596" x1="6.6264" y1="3.02613e-06" x2="117.502" y2="94.1867" gradientUnits="userSpaceOnUse">
<stop stop-color="#1AB6C3"/>
<stop offset="1" stop-color="#107AF2"/>
</linearGradient>
</defs>
</svg>
