<svg width="14" height="14" viewBox="0 0 14 14" fill="none" xmlns="http://www.w3.org/2000/svg">
<path d="M3.16163 4.66235H0.222656V13.9978H3.16163V4.66235Z" fill="#107AF2"/>
<path d="M0 1.68126C0 0.706579 0.758838 -0.00610352 1.69415 -0.00610352C2.62946 -0.00610352 3.3883 0.706579 3.3883 1.68126C3.3883 2.65594 2.62946 3.36862 1.69415 3.36862C0.758838 3.36862 0 2.65594 0 1.68126Z" fill="#107AF2"/>
<path d="M7.75599 5.96145H7.794C8.07771 5.38723 9.0714 4.40576 10.5877 4.40576C12.2276 4.40576 13.9991 5.37908 13.9991 8.22982V14.0046H11.0601V8.90585C11.0601 7.40175 10.4207 6.93749 9.59539 6.93749C8.72388 6.93749 7.86866 7.59315 7.86866 8.94386V14.0059H4.92969" fill="#107AF2"/>
<path d="M4.92969 14.0045V4.66772H7.75599V5.96145" fill="#107AF2"/>
</svg>
